<?xml version="1.0" encoding="UTF-8"?>
<svg id="Layer_1" data-name="Layer 1" xmlns="http://www.w3.org/2000/svg" viewBox="0 0 600 191.63">
  <defs>
    <style>
      .cls-1 {
        fill: #262626;
      }

      .cls-2 {
        fill: #ff6101;
      }
    </style>
  </defs>
  <path class="cls-1" d="M38.2,95.56c-8.12,0-14.16-2.05-18.14-6.14-3.98-4.1-5.97-10.24-5.97-18.43v-21.96H3.85v-18.08h43.91v18.08h-11.26v21.96c0,1.67.6,3.05,1.81,4.16,1.21,1.09,2.73,1.65,4.55,1.65.53,0,1.06-.06,1.59-.18.53-.11,1.06-.24,1.59-.4l3.75,17.07c-1.67.53-3.46,1.04-5.4,1.53-1.93.5-4.01.74-6.2.74ZM8.97,36.19v-5.23c1.74,0,3.18-.57,4.32-1.71s1.7-2.57,1.7-4.32v-9.43h21.5v6.03c0,1.14-.29,2.39-.86,3.75-.56,1.37-1.42,2.58-2.56,3.64-1.14,1.06-2.58,1.75-4.32,2.06l-19.79,5.23Z"/>
  <path class="cls-1" d="M64.59,94.77V30.96h22.29v63.81h-22.29ZM84.27,69.63l2.61-22.64c1.3-5.16,3.65-9.21,7.05-12.17,3.42-2.95,7.96-4.43,13.65-4.43v23.44c-.92-.23-1.79-.38-2.62-.46-.83-.07-1.67-.11-2.5-.11-2.66,0-5.17.65-7.56,1.93s-4.32,3.15-5.8,5.57c-1.48,2.43-2.22,5.39-2.22,8.88h-2.61Z"/>
  <path class="cls-1" d="M144.44,95.56c-5.61,0-10.39-1.47-14.33-4.43-3.94-2.95-6.93-6.92-8.99-11.89-2.05-4.97-3.06-10.41-3.06-16.32s1.02-11.36,3.06-16.33c2.06-4.96,5.05-8.94,8.99-11.94,3.94-2.99,8.72-4.49,14.33-4.49,4.7,0,8.79,1.32,12.23,3.98,3.45,2.66,5.86,6.37,7.23,11.15v-14.33h22.29v63.81h-11.38c-3.49,0-6.17-.94-8.07-2.84s-2.84-4.59-2.84-8.07v-3.3c-1.37,4.78-3.78,8.48-7.23,11.09-3.44,2.62-7.53,3.93-12.23,3.93ZM152.29,76c2.2,0,4.18-.53,5.92-1.59,1.75-1.06,3.13-2.56,4.16-4.5,1.02-1.93,1.54-4.26,1.54-6.99s-.52-5.08-1.54-7.05c-1.03-1.97-2.41-3.51-4.16-4.61-1.74-1.1-3.71-1.65-5.92-1.65s-4.17.55-5.92,1.65c-1.74,1.1-3.11,2.64-4.09,4.61-.99,1.97-1.48,4.32-1.48,7.05s.49,5.05,1.48,6.99c.98,1.93,2.35,3.43,4.09,4.5,1.75,1.06,3.72,1.59,5.92,1.59Z"/>
  <path class="cls-1" d="M233.51,95.56c-8.12,0-14.16-2.05-18.14-6.14-3.98-4.1-5.97-10.24-5.97-18.43v-21.96h-10.24v-18.08h43.91v18.08h-11.26v21.96c0,1.67.6,3.05,1.81,4.16,1.21,1.09,2.73,1.65,4.55,1.65.53,0,1.06-.06,1.59-.18.53-.11,1.06-.24,1.59-.4l3.75,17.07c-1.67.53-3.46,1.04-5.4,1.53-1.93.5-4.01.74-6.2.74ZM204.28,36.19v-5.23c1.74,0,3.18-.57,4.32-1.71s1.7-2.57,1.7-4.32v-9.43h21.5v6.03c0,1.14-.29,2.39-.86,3.75-.56,1.37-1.42,2.58-2.56,3.64-1.14,1.06-2.58,1.75-4.32,2.06l-19.79,5.23Z"/>
  <path class="cls-1" d="M288.45,95.56c-6.37,0-12.05-1.31-17.06-3.93-5.01-2.61-8.97-6.39-11.89-11.31-2.93-4.93-4.38-10.77-4.38-17.52s1.45-12.57,4.38-17.46c2.92-4.89,6.9-8.65,11.94-11.26,5.05-2.62,10.75-3.93,17.12-3.93s12.08,1.31,17.13,3.93c5.04,2.61,9.02,6.37,11.94,11.26,2.92,4.89,4.38,10.71,4.38,17.46s-1.48,12.59-4.43,17.52c-2.96,4.92-6.96,8.7-12.01,11.31-5.05,2.62-10.75,3.93-17.12,3.93ZM288.45,76.23c1.9,0,3.68-.47,5.35-1.42,1.67-.95,3.01-2.43,4.04-4.44,1.02-2,1.54-4.53,1.54-7.56s-.52-5.54-1.54-7.51c-1.03-1.97-2.35-3.43-3.98-4.38-1.64-.94-3.4-1.42-5.3-1.42s-3.66.47-5.29,1.42c-1.63.95-2.94,2.41-3.93,4.38-.99,1.97-1.48,4.48-1.48,7.51s.47,5.56,1.43,7.56c.94,2.02,2.23,3.49,3.87,4.44,1.63.94,3.39,1.42,5.29,1.42Z"/>
  <path class="cls-1" d="M338.84,94.77v-49.82h-7.28v-13.19h7.28v-3.87c0-4.02.65-7.42,1.93-10.18,1.3-2.77,3.11-5.01,5.46-6.71s5.16-2.93,8.41-3.69c3.27-.76,6.87-1.06,10.81-.92v13.42c-2.05,0-3.85.23-5.41.69s-2.79,1.31-3.69,2.56c-.92,1.25-1.37,3.05-1.37,5.4v3.3h11.03v13.19h-11.03v49.82h-16.15Z"/>
  <path class="cls-1" d="M408.68,95.56c-4.85,0-9.36-.76-13.53-2.27-4.18-1.52-7.78-3.7-10.8-6.54-3.04-2.84-5.41-6.2-7.11-10.07-1.71-3.86-2.56-8.18-2.56-12.96s.89-9.41,2.68-13.42c1.78-4.02,4.21-7.47,7.28-10.36,3.07-2.88,6.62-5.09,10.64-6.65s8.27-2.33,12.75-2.33c3.86,0,7.45.51,10.75,1.54,3.3,1.02,6.21,2.46,8.76,4.32,2.54,1.85,4.53,4.07,5.97,6.65,1.44,2.58,2.17,5.39,2.17,8.42,0,4.02-1.16,7.33-3.47,9.95-2.31,2.61-5.35,4.68-9.1,6.2-3.76,1.52-7.87,2.57-12.34,3.18-4.48.6-8.88.83-13.2.68-.61-.07-1.38-.11-2.33-.11s-1.78-.04-2.5-.11-1.19-.07-1.43,0c.45,2.12,1.52,4.04,3.18,5.74,1.67,1.71,3.78,3.05,6.31,4.05,2.55.98,5.26,1.47,8.14,1.47,2.5,0,4.94-.44,7.34-1.31,2.39-.87,4.56-2.05,6.54-3.53s3.6-3.09,4.89-4.83l11.03,8.3c-2.43,3.11-5.23,5.72-8.41,7.85-3.18,2.12-6.6,3.68-10.24,4.67-3.64.98-7.43,1.47-11.38,1.47ZM398.11,60.41c2.43,0,4.92-.13,7.51-.4,2.57-.26,4.94-.69,7.11-1.31,2.16-.61,3.9-1.5,5.23-2.68,1.32-1.18,1.99-2.68,1.99-4.49,0-1.52-.49-2.86-1.48-4.04-.98-1.18-2.35-2.13-4.09-2.85-1.75-.71-3.72-1.07-5.92-1.07-3.49,0-6.58.8-9.28,2.39s-4.8,3.66-6.31,6.19c-1.52,2.55-2.35,5.17-2.5,7.91.83.08,1.95.16,3.35.23,1.41.07,2.87.11,4.39.11Z"/>
  <path class="cls-1" d="M459.54,24.25c-3.26,0-5.93-.97-8.02-2.91-2.09-1.93-3.13-4.38-3.13-7.33s1.04-5.31,3.13-7.29c2.08-1.97,4.76-2.95,8.02-2.95s5.84.98,7.96,2.95,3.18,4.41,3.18,7.29-1.06,5.4-3.18,7.33-4.78,2.91-7.96,2.91ZM451.34,94.77V31.75h16.15v63.01h-16.15Z"/>
  <path class="cls-1" d="M509.58,95.56c-5.92,0-10.6-1.76-14.04-5.29-3.45-3.53-5.17-8.52-5.17-14.96v-30.6h-9.78v-12.97h39.93v12.97h-13.88v31.05c0,1.97.56,3.45,1.7,4.43,1.14.99,2.43,1.48,3.87,1.48.91,0,1.76-.15,2.56-.45.81-.31,1.57-.76,2.33-1.36l5.69,11.03c-1.97,1.59-4.03,2.78-6.15,3.53-2.12.76-4.47,1.14-7.05,1.14ZM485.35,36.75v-5c1.67,0,2.97-.49,3.93-1.48.94-.98,1.43-2.31,1.43-3.98v-10.13h15.81v7.63c0,1.06-.27,2.16-.8,3.3-.54,1.14-1.31,2.12-2.33,2.95-1.03.84-2.18,1.41-3.47,1.71l-14.56,5Z"/>
  <path class="cls-1" d="M563.39,95.56c-6.15,0-11.63-1.31-16.44-3.93-4.81-2.61-8.65-6.39-11.49-11.31-2.84-4.93-4.27-10.66-4.27-17.18s1.44-12.19,4.32-17.01,6.77-8.54,11.66-11.2c4.89-2.66,10.41-3.98,16.55-3.98s11.54,1.31,16.43,3.93c4.9,2.61,8.78,6.33,11.66,11.15,2.88,4.81,4.32,10.52,4.32,17.12s-1.48,12.25-4.44,17.18c-2.95,4.92-6.9,8.7-11.82,11.31-4.93,2.62-10.43,3.93-16.5,3.93ZM563.27,81.69c2.8,0,5.46-.69,7.97-2.05,2.5-1.37,4.55-3.42,6.14-6.15s2.39-6.17,2.39-10.35-.78-7.51-2.33-10.24-3.56-4.76-6.03-6.08-5.1-1.99-7.91-1.99-5.41.67-7.79,1.99-4.34,3.35-5.86,6.08c-1.51,2.73-2.27,6.15-2.27,10.24s.71,7.62,2.16,10.35c1.44,2.73,3.36,4.78,5.75,6.15,2.39,1.36,4.98,2.05,7.79,2.05Z"/>
  <path class="cls-2" d="M367.63,187.46c-5.5,0-10.94-.82-16.32-2.62-21.49-7.19-38.47-29.07-51.94-66.91l21.5-8.44c10.68,30.02,23.27,47.63,37.39,52.36,21.84,7.31,52.06-14.24,84.05-37.08,36.09-25.76,70.94-55.22,121.36-50.07v20.86c-42.37-2.11-73.48,24.19-108.46,49.16-30.64,21.87-59.87,42.73-87.58,42.73Z"/>
</svg>